HIERARCHY
ROOT Hip
{
  OFFSET 0.0 0.0 0.0
  CHANNELS 6 Xposition Yposition Zposition Xrotation Yrotation Zrotation
  JOINT LowerSpine
  {
    OFFSET 0.0 0.061367 -0.03653
    CHANNELS 3 Xrotation Yrotation Zrotation
    JOINT MiddleSpine
    {
      OFFSET 0.0 0.056002 0.002633
      CHANNELS 3 Xrotation Yrotation Zrotation
      JOINT Chest
      {
        OFFSET 0.0 0.069296 -0.013882
        CHANNELS 3 Xrotation Yrotation Zrotation
        JOINT Neck
        {
          OFFSET 0.0 0.156156 -0.002923
          CHANNELS 3 Xrotation Yrotation Zrotation
          JOINT Head
          {
            OFFSET 0.0 0.088183 0.023986
            CHANNELS 3 Xrotation Yrotation Zrotation
            End Site
            {
              OFFSET 1e-06 0.123215 0.003678
            }
          }
        }
        JOINT LClavicle
        {
          OFFSET 0.014189 0.150698 0.046467
          CHANNELS 3 Xrotation Yrotation Zrotation
          JOINT LShoulder
          {
            OFFSET 0.082893 0.021616 -0.034976
            CHANNELS 3 Xrotation Yrotation Zrotation
            JOINT LForearm
            {
              OFFSET 0.195645 -0.000695 -0.001695
              CHANNELS 3 Xrotation Yrotation Zrotation
              JOINT LHand
              {
                OFFSET 0.163209 0.000474 -0.000977
                CHANNELS 3 Xrotation Yrotation Zrotation
                End Site
                {
                  OFFSET 0.0 0.006864 0.0
                }
              }
            }
          }
        }
        JOINT RClavicle
        {
          OFFSET -0.014189 0.150698 0.046467
          CHANNELS 3 Xrotation Yrotation Zrotation
          JOINT RShoulder
          {
            OFFSET -0.082908 0.021619 -0.034982
            CHANNELS 3 Xrotation Yrotation Zrotation
            JOINT RForearm
            {
              OFFSET -0.195645 -0.000695 -0.001695
              CHANNELS 3 Xrotation Yrotation Zrotation
              JOINT RHand
              {
                OFFSET -0.163209 0.000474 -0.000977
                CHANNELS 3 Xrotation Yrotation Zrotation
                End Site
                {
                  OFFSET 0.0 0.006864 0.0
                }
              }
            }
          }
        }
      }
    }
  }
  JOINT RThigh
  {
    OFFSET -0.072558 0.02774 -0.005953
    CHANNELS 3 Xrotation Yrotation Zrotation
    JOINT RShin
    {
      OFFSET -0.005253 -0.285537 0.0
      CHANNELS 3 Xrotation Yrotation Zrotation
      JOINT RFoot
      {
        OFFSET 0.0 -0.28038 0.0
        CHANNELS 3 Xrotation Yrotation Zrotation
        JOINT RToe
        {
          OFFSET 0.0 -0.030816 0.064441
          CHANNELS 3 Xrotation Yrotation Zrotation
          End Site
          {
            OFFSET 0.0 0.0 0.043231
          }
        }
      }
    }
  }
  JOINT LThigh
  {
    OFFSET 0.072557 0.027741 -0.005953
    CHANNELS 3 Xrotation Yrotation Zrotation
    JOINT LShin
    {
      OFFSET 0.005253 -0.285539 0.0
      CHANNELS 3 Xrotation Yrotation Zrotation
      JOINT LFoot
      {
        OFFSET 0.0 -0.28038 0.0
        CHANNELS 3 Xrotation Yrotation Zrotation
        JOINT LToe
        {
          OFFSET 0.0 -0.030816 0.064441
          CHANNELS 3 Xrotation Yrotation Zrotation
          End Site
          {
            OFFSET 0.0 0.0 0.043231
          }
        }
      }
    }
  }
}
MOTION
Frames: 7
Frame Time: 0.03333333333333333
0.018973 0.587792 0.002423 5.819308 9.961274 -3.648983 -2.176222 -0.362702 0.268009 -0.819472 0.997348 0.326042 -6.467061 1.846627 0.380063 -2.601842 -0.011762 0.142953 0.014509 -0.024977 -0.010078 0.486808 0.252591 -15.177664 24.990944 -27.381899 -54.880474 12.524573 -19.751356 -1.648306 0.092973 0.107408 -0.099719 0.36994 0.304323 14.89898 18.989752 30.843235 54.663986 8.418407 15.980321 2.546068 0.041278 -0.08099 -0.009064 -3.793808 -3.644132 1.457283 12.302826 -1.994286 -0.300052 -0.737964 1.140504 0.299607 -0.295185 0.157009 0.048508 -2.617862 4.436893 -1.216009 7.181565 2.674555 -1.594171 -0.725872 -1.099985 -0.274493 -0.010477 -0.085151 -0.049424 
0.007419 0.585915 -0.005586 7.542521 13.128547 -2.686183 -2.041875 -0.423619 0.430364 -1.400756 0.350197 0.744374 -8.708864 1.453894 -0.26349 -2.159639 0.108105 0.126602 0.024652 -0.029397 0.015741 0.438131 0.299646 -15.156347 27.729315 -27.12739 -53.288101 14.942501 -19.290327 -1.671078 0.051121 0.073693 -0.064339 0.226641 1.168533 14.559064 22.355738 30.720135 52.676388 10.868621 17.053688 3.361888 -0.069259 -0.094749 -0.01361 -7.067539 -2.564156 0.840198 16.263746 -2.156068 -0.267837 0.042787 0.776287 0.24804 -0.329402 0.076738 0.090928 -5.098761 4.778136 -2.112331 5.1048 3.319862 -0.974426 -0.262302 -1.581267 -0.472724 0.047403 -0.112087 -0.054779 
0.00544 0.580366 0.003773 8.368912 13.604336 -1.85516 -1.903136 -0.49087 0.383613 -1.544694 0.396002 0.948859 -10.285205 0.845732 0.131265 -1.989519 0.244428 0.058381 0.025155 -0.049972 0.022828 0.650417 0.411513 -15.606768 28.705427 -26.979822 -53.579617 15.850985 -19.933172 -2.302056 0.045643 0.079095 -0.063184 0.226319 1.008444 14.622968 23.829224 30.287436 53.166252 11.320759 16.449907 4.388736 -0.035228 -0.121694 -0.007955 -6.916811 -2.670338 0.854125 14.145464 -2.414298 -0.193905 -0.409988 0.772184 0.101911 -0.259776 0.14394 0.103205 -6.36545 4.30522 -2.803091 4.878908 3.758715 -0.478833 -0.278073 -1.315022 -0.292583 0.04468 -0.092703 -0.040424 
0.009496 0.576322 0.009238 8.459197 12.592702 -1.458418 -1.806586 -0.510582 0.385189 -1.620512 0.398002 1.023279 -10.893275 0.553952 0.352979 -1.795322 0.284335 0.047296 0.023683 -0.085888 0.020563 0.706626 0.487191 -15.810836 28.732199 -27.085705 -54.383671 16.024824 -20.35721 -2.622015 0.045733 0.079761 -0.066886 0.255235 0.896737 14.594602 23.60033 30.196663 54.210636 11.28305 16.228369 4.872692 -0.047124 -0.106661 -0.009763 -6.275224 -3.048974 1.060284 13.195763 -2.721437 -0.212648 -0.549529 0.733119 0.03791 -0.255357 0.142033 0.110734 -6.6837 4.084224 -3.296073 4.701116 3.65063 -0.193638 -0.287153 -1.174955 -0.215256 0.046544 -0.085918 -0.041873 
0.008679 0.574495 0.017053 8.808552 11.986466 -1.464079 -1.722966 -0.521643 0.38336 -1.668269 0.39847 1.020316 -11.209334 0.437629 0.442471 -1.688216 0.304002 0.045718 0.022327 -0.105836 0.019095 0.72464 0.476178 -15.836791 28.407545 -27.203999 -54.718262 15.804688 -20.374741 -2.821092 0.045921 0.082204 -0.066407 0.258885 0.788493 14.601007 23.133171 30.318596 54.855438 11.008065 15.670098 5.039414 -0.060101 -0.08917 -0.010872 -6.194955 -3.238799 1.170245 13.363089 -2.921066 -0.126298 -0.617959 0.647765 -0.018955 -0.260959 0.139245 0.111607 -7.121416 3.98771 -3.54919 4.35657 3.4281 -0.034677 -0.352408 -1.140256 -0.189943 0.04635 -0.077505 -0.043843 
0.007709 0.57186 0.02268 9.139854 11.921396 -1.393583 -1.660472 -0.523884 0.383204 -1.697766 0.419728 1.015248 -11.403572 0.528002 0.484292 -1.627915 0.328313 0.049076 0.020517 -0.116323 0.018391 0.722321 0.437603 -15.734504 28.293262 -27.220549 -54.778015 15.565493 -20.138527 -2.931489 0.045371 0.081387 -0.06543 0.23713 0.745184 14.617078 22.451714 30.650604 55.198895 10.322117 14.489856 5.124928 -0.062825 -0.078387 -0.011089 -6.431334 -3.167911 1.261952 13.660449 -2.914668 -0.059967 -0.775259 0.574402 -0.060909 -0.267342 0.135248 0.109604 -7.717035 3.900883 -3.634311 4.241868 3.219715 0.000828 -0.419493 -1.151109 -0.204184 0.045215 -0.073029 -0.044893 
0.006225 0.569803 0.026121 9.410988 12.454223 -1.323524 -1.638266 -0.515135 0.399088 -1.720332 0.460703 1.011827 -11.432031 0.72289 0.547712 -1.60503 0.348606 0.047325 0.018736 -0.124507 0.017157 0.704292 0.404913 -15.654213 28.399557 -27.029274 -54.762913 15.42692 -20.007957 -2.983104 0.044397 0.079699 -0.063555 0.213376 0.762652 14.661368 21.859352 30.823465 55.362488 9.535711 13.42367 5.220698 -0.066585 -0.072423 -0.011402 -6.683866 -2.903185 1.327597 13.797415 -2.778516 -0.069204 -0.946227 0.528824 -0.085262 -0.2763 0.12818 0.108126 -8.28454 3.900883 -3.632298 4.197881 3.114885 0.002478 -0.442002 -1.170002 -0.226152 0.045308 -0.073014 -0.046398 
